<mxfile host="app.diagrams.net" modified="2023-04-29T15:51:48.243Z" agent="Mozilla/5.0 (Windows NT 10.0; Win64; x64) AppleWebKit/537.36 (KHTML, like Gecko) Chrome/112.0.0.0 Safari/537.36" etag="JJV1Y5uD0T072UIyEiwE" version="21.2.1" type="github">
  <diagram name="Page-1" id="x9sIC2Sda1F80iPU7M8W">
    <mxGraphModel dx="3088" dy="756" grid="1" gridSize="10" guides="1" tooltips="1" connect="1" arrows="1" fold="1" page="1" pageScale="1" pageWidth="827" pageHeight="1169" math="0" shadow="0">
      <root>
        <mxCell id="0" />
        <mxCell id="1" parent="0" />
        <mxCell id="0jnCKDfPPuCcQXMNyFVX-3" value="" style="edgeStyle=orthogonalEdgeStyle;rounded=0;orthogonalLoop=1;jettySize=auto;html=1;endArrow=none;endFill=0;shape=link;fontSize=14;" parent="1" source="0jnCKDfPPuCcQXMNyFVX-1" target="0jnCKDfPPuCcQXMNyFVX-2" edge="1">
          <mxGeometry relative="1" as="geometry" />
        </mxCell>
        <mxCell id="0jnCKDfPPuCcQXMNyFVX-11" value="" style="rounded=0;orthogonalLoop=1;jettySize=auto;html=1;endArrow=none;endFill=0;entryX=0;entryY=0.5;entryDx=0;entryDy=0;exitX=1;exitY=0.5;exitDx=0;exitDy=0;fontSize=14;" parent="1" source="0jnCKDfPPuCcQXMNyFVX-1" target="0jnCKDfPPuCcQXMNyFVX-10" edge="1">
          <mxGeometry relative="1" as="geometry" />
        </mxCell>
        <mxCell id="0jnCKDfPPuCcQXMNyFVX-13" style="rounded=0;orthogonalLoop=1;jettySize=auto;html=1;endArrow=none;endFill=0;entryX=0;entryY=0.5;entryDx=0;entryDy=0;exitX=1;exitY=0.5;exitDx=0;exitDy=0;fontSize=14;" parent="1" source="0jnCKDfPPuCcQXMNyFVX-1" target="0jnCKDfPPuCcQXMNyFVX-12" edge="1">
          <mxGeometry relative="1" as="geometry" />
        </mxCell>
        <mxCell id="0jnCKDfPPuCcQXMNyFVX-1" value="Department" style="rounded=0;whiteSpace=wrap;html=1;fontSize=14;" parent="1" vertex="1">
          <mxGeometry x="111.25" y="67.5" width="120" height="50" as="geometry" />
        </mxCell>
        <mxCell id="RbO1kLJSpm7-IBDXhGbu-28" style="edgeStyle=orthogonalEdgeStyle;rounded=0;orthogonalLoop=1;jettySize=auto;html=1;entryX=0.5;entryY=0;entryDx=0;entryDy=0;endArrow=none;endFill=0;" parent="1" source="0jnCKDfPPuCcQXMNyFVX-2" target="0jnCKDfPPuCcQXMNyFVX-5" edge="1">
          <mxGeometry relative="1" as="geometry" />
        </mxCell>
        <mxCell id="0jnCKDfPPuCcQXMNyFVX-2" value="Has" style="rhombus;whiteSpace=wrap;html=1;rounded=0;fontSize=14;" parent="1" vertex="1">
          <mxGeometry x="98.75" y="147.5" width="145" height="60" as="geometry" />
        </mxCell>
        <mxCell id="0jnCKDfPPuCcQXMNyFVX-4" value="M" style="text;html=1;strokeColor=none;fillColor=none;align=center;verticalAlign=middle;whiteSpace=wrap;rounded=0;fontSize=14;" parent="1" vertex="1">
          <mxGeometry x="181.25" y="207.5" width="30" height="30" as="geometry" />
        </mxCell>
        <mxCell id="0jnCKDfPPuCcQXMNyFVX-19" style="rounded=0;orthogonalLoop=1;jettySize=auto;html=1;entryX=0;entryY=0.5;entryDx=0;entryDy=0;endArrow=none;endFill=0;exitX=1;exitY=0.5;exitDx=0;exitDy=0;fontSize=14;" parent="1" source="0jnCKDfPPuCcQXMNyFVX-5" target="0jnCKDfPPuCcQXMNyFVX-14" edge="1">
          <mxGeometry relative="1" as="geometry" />
        </mxCell>
        <mxCell id="0jnCKDfPPuCcQXMNyFVX-20" style="rounded=0;orthogonalLoop=1;jettySize=auto;html=1;entryX=0;entryY=0.5;entryDx=0;entryDy=0;endArrow=none;endFill=0;fontSize=14;exitX=1;exitY=0.5;exitDx=0;exitDy=0;" parent="1" source="0jnCKDfPPuCcQXMNyFVX-5" target="0jnCKDfPPuCcQXMNyFVX-15" edge="1">
          <mxGeometry relative="1" as="geometry">
            <mxPoint x="231.25" y="262.5" as="sourcePoint" />
          </mxGeometry>
        </mxCell>
        <mxCell id="0jnCKDfPPuCcQXMNyFVX-21" style="rounded=0;orthogonalLoop=1;jettySize=auto;html=1;entryX=0;entryY=0.5;entryDx=0;entryDy=0;endArrow=none;endFill=0;fontSize=14;exitX=1;exitY=0.5;exitDx=0;exitDy=0;" parent="1" source="0jnCKDfPPuCcQXMNyFVX-5" target="0jnCKDfPPuCcQXMNyFVX-16" edge="1">
          <mxGeometry relative="1" as="geometry">
            <mxPoint x="231.25" y="262.5" as="sourcePoint" />
          </mxGeometry>
        </mxCell>
        <mxCell id="0jnCKDfPPuCcQXMNyFVX-22" style="rounded=0;orthogonalLoop=1;jettySize=auto;html=1;entryX=0;entryY=0.5;entryDx=0;entryDy=0;endArrow=none;endFill=0;fontSize=14;exitX=1;exitY=0.5;exitDx=0;exitDy=0;" parent="1" source="0jnCKDfPPuCcQXMNyFVX-5" target="0jnCKDfPPuCcQXMNyFVX-17" edge="1">
          <mxGeometry relative="1" as="geometry">
            <mxPoint x="231.25" y="262.5" as="sourcePoint" />
          </mxGeometry>
        </mxCell>
        <mxCell id="0jnCKDfPPuCcQXMNyFVX-28" value="" style="rounded=0;orthogonalLoop=1;jettySize=auto;html=1;fontSize=14;entryX=0.5;entryY=0;entryDx=0;entryDy=0;endArrow=none;endFill=0;" parent="1" source="0jnCKDfPPuCcQXMNyFVX-5" target="znWmD3map7zhyLhBwitS-1" edge="1">
          <mxGeometry relative="1" as="geometry">
            <mxPoint x="170.82250000000022" y="342.3600000000001" as="targetPoint" />
          </mxGeometry>
        </mxCell>
        <mxCell id="RbO1kLJSpm7-IBDXhGbu-32" style="rounded=0;orthogonalLoop=1;jettySize=auto;html=1;entryX=0;entryY=0.5;entryDx=0;entryDy=0;endArrow=none;endFill=0;exitX=1;exitY=0.5;exitDx=0;exitDy=0;" parent="1" source="0jnCKDfPPuCcQXMNyFVX-5" target="RbO1kLJSpm7-IBDXhGbu-31" edge="1">
          <mxGeometry relative="1" as="geometry" />
        </mxCell>
        <mxCell id="0jnCKDfPPuCcQXMNyFVX-5" value="Employee" style="whiteSpace=wrap;html=1;rounded=0;fontSize=14;" parent="1" vertex="1">
          <mxGeometry x="111.25" y="253.5" width="120" height="50" as="geometry" />
        </mxCell>
        <mxCell id="0jnCKDfPPuCcQXMNyFVX-7" value="1" style="text;html=1;strokeColor=none;fillColor=none;align=center;verticalAlign=middle;whiteSpace=wrap;rounded=0;fontSize=14;" parent="1" vertex="1">
          <mxGeometry x="181.25" y="117.5" width="30" height="30" as="geometry" />
        </mxCell>
        <mxCell id="0jnCKDfPPuCcQXMNyFVX-10" value="&lt;u style=&quot;font-size: 14px;&quot;&gt;DepartmentID&lt;/u&gt;" style="ellipse;whiteSpace=wrap;html=1;rounded=0;fontSize=14;" parent="1" vertex="1">
          <mxGeometry x="291.25" y="37.5" width="110" height="40" as="geometry" />
        </mxCell>
        <mxCell id="0jnCKDfPPuCcQXMNyFVX-12" value="Name" style="ellipse;whiteSpace=wrap;html=1;rounded=0;fontSize=14;" parent="1" vertex="1">
          <mxGeometry x="291.25" y="87.5" width="110" height="40" as="geometry" />
        </mxCell>
        <mxCell id="0jnCKDfPPuCcQXMNyFVX-14" value="&lt;u style=&quot;font-size: 14px;&quot;&gt;EmployeeID&lt;/u&gt;" style="ellipse;whiteSpace=wrap;html=1;rounded=0;fontSize=14;" parent="1" vertex="1">
          <mxGeometry x="281.25" y="162.5" width="110" height="40" as="geometry" />
        </mxCell>
        <mxCell id="0jnCKDfPPuCcQXMNyFVX-15" value="Name" style="ellipse;whiteSpace=wrap;html=1;rounded=0;fontSize=14;" parent="1" vertex="1">
          <mxGeometry x="281.25" y="212.5" width="110" height="40" as="geometry" />
        </mxCell>
        <mxCell id="0jnCKDfPPuCcQXMNyFVX-16" value="Level" style="ellipse;whiteSpace=wrap;html=1;rounded=0;fontSize=14;" parent="1" vertex="1">
          <mxGeometry x="281.25" y="262.5" width="110" height="40" as="geometry" />
        </mxCell>
        <mxCell id="0jnCKDfPPuCcQXMNyFVX-17" value="Email" style="ellipse;whiteSpace=wrap;html=1;rounded=0;fontSize=14;" parent="1" vertex="1">
          <mxGeometry x="281.25" y="310" width="110" height="40" as="geometry" />
        </mxCell>
        <mxCell id="0jnCKDfPPuCcQXMNyFVX-47" value="" style="edgeStyle=orthogonalEdgeStyle;rounded=0;orthogonalLoop=1;jettySize=auto;html=1;endArrow=none;endFill=0;fontSize=14;" parent="1" source="0jnCKDfPPuCcQXMNyFVX-27" target="0jnCKDfPPuCcQXMNyFVX-46" edge="1">
          <mxGeometry relative="1" as="geometry" />
        </mxCell>
        <mxCell id="0jnCKDfPPuCcQXMNyFVX-27" value="Refers to" style="rhombus;whiteSpace=wrap;html=1;rounded=0;fontSize=14;" parent="1" vertex="1">
          <mxGeometry x="98.75" y="650" width="142.5" height="60" as="geometry" />
        </mxCell>
        <mxCell id="0jnCKDfPPuCcQXMNyFVX-29" value="1" style="text;html=1;strokeColor=none;fillColor=none;align=center;verticalAlign=middle;whiteSpace=wrap;rounded=0;fontSize=14;" parent="1" vertex="1">
          <mxGeometry x="181.25" y="310" width="30" height="30" as="geometry" />
        </mxCell>
        <mxCell id="0jnCKDfPPuCcQXMNyFVX-37" value="RequestStatus (int)" style="swimlane;fontStyle=0;childLayout=stackLayout;horizontal=1;startSize=30;horizontalStack=0;resizeParent=1;resizeParentMax=0;resizeLast=0;collapsible=1;marginBottom=0;whiteSpace=wrap;html=1;fontSize=14;" parent="1" vertex="1">
          <mxGeometry x="430" y="404.5" width="230" height="120" as="geometry" />
        </mxCell>
        <mxCell id="0jnCKDfPPuCcQXMNyFVX-38" value="0 : Pending" style="text;strokeColor=none;fillColor=none;align=left;verticalAlign=middle;spacingLeft=4;spacingRight=4;overflow=hidden;points=[[0,0.5],[1,0.5]];portConstraint=eastwest;rotatable=0;whiteSpace=wrap;html=1;fontSize=14;" parent="0jnCKDfPPuCcQXMNyFVX-37" vertex="1">
          <mxGeometry y="30" width="230" height="30" as="geometry" />
        </mxCell>
        <mxCell id="0jnCKDfPPuCcQXMNyFVX-39" value="1 : Approved" style="text;strokeColor=none;fillColor=none;align=left;verticalAlign=middle;spacingLeft=4;spacingRight=4;overflow=hidden;points=[[0,0.5],[1,0.5]];portConstraint=eastwest;rotatable=0;whiteSpace=wrap;html=1;fontSize=14;" parent="0jnCKDfPPuCcQXMNyFVX-37" vertex="1">
          <mxGeometry y="60" width="230" height="30" as="geometry" />
        </mxCell>
        <mxCell id="0jnCKDfPPuCcQXMNyFVX-40" value="2 : Rejected" style="text;strokeColor=none;fillColor=none;align=left;verticalAlign=middle;spacingLeft=4;spacingRight=4;overflow=hidden;points=[[0,0.5],[1,0.5]];portConstraint=eastwest;rotatable=0;whiteSpace=wrap;html=1;fontSize=14;" parent="0jnCKDfPPuCcQXMNyFVX-37" vertex="1">
          <mxGeometry y="90" width="230" height="30" as="geometry" />
        </mxCell>
        <mxCell id="0jnCKDfPPuCcQXMNyFVX-42" value="SeatStatus (int)" style="swimlane;fontStyle=0;childLayout=stackLayout;horizontal=1;startSize=30;horizontalStack=0;resizeParent=1;resizeParentMax=0;resizeLast=0;collapsible=1;marginBottom=0;whiteSpace=wrap;html=1;fontSize=14;" parent="1" vertex="1">
          <mxGeometry x="420" y="745" width="240" height="120" as="geometry">
            <mxRectangle x="430" y="734" width="140" height="30" as="alternateBounds" />
          </mxGeometry>
        </mxCell>
        <mxCell id="0jnCKDfPPuCcQXMNyFVX-43" value="0 : Available" style="text;strokeColor=none;fillColor=none;align=left;verticalAlign=middle;spacingLeft=4;spacingRight=4;overflow=hidden;points=[[0,0.5],[1,0.5]];portConstraint=eastwest;rotatable=0;whiteSpace=wrap;html=1;fontSize=14;" parent="0jnCKDfPPuCcQXMNyFVX-42" vertex="1">
          <mxGeometry y="30" width="240" height="30" as="geometry" />
        </mxCell>
        <mxCell id="0jnCKDfPPuCcQXMNyFVX-44" value="1 : Reserved" style="text;strokeColor=none;fillColor=none;align=left;verticalAlign=middle;spacingLeft=4;spacingRight=4;overflow=hidden;points=[[0,0.5],[1,0.5]];portConstraint=eastwest;rotatable=0;whiteSpace=wrap;html=1;fontSize=14;" parent="0jnCKDfPPuCcQXMNyFVX-42" vertex="1">
          <mxGeometry y="60" width="240" height="30" as="geometry" />
        </mxCell>
        <mxCell id="0jnCKDfPPuCcQXMNyFVX-45" value="2 : Occupied" style="text;strokeColor=none;fillColor=none;align=left;verticalAlign=middle;spacingLeft=4;spacingRight=4;overflow=hidden;points=[[0,0.5],[1,0.5]];portConstraint=eastwest;rotatable=0;whiteSpace=wrap;html=1;fontSize=14;" parent="0jnCKDfPPuCcQXMNyFVX-42" vertex="1">
          <mxGeometry y="90" width="240" height="30" as="geometry" />
        </mxCell>
        <mxCell id="0jnCKDfPPuCcQXMNyFVX-52" style="rounded=0;orthogonalLoop=1;jettySize=auto;html=1;entryX=0;entryY=0.5;entryDx=0;entryDy=0;endArrow=none;endFill=0;fontSize=14;" parent="1" target="0jnCKDfPPuCcQXMNyFVX-48" edge="1">
          <mxGeometry relative="1" as="geometry">
            <mxPoint x="270" y="745" as="targetPoint" />
            <mxPoint x="230" y="795" as="sourcePoint" />
          </mxGeometry>
        </mxCell>
        <mxCell id="0jnCKDfPPuCcQXMNyFVX-53" style="rounded=0;orthogonalLoop=1;jettySize=auto;html=1;entryX=0;entryY=0.5;entryDx=0;entryDy=0;endArrow=none;endFill=0;exitX=1;exitY=0.5;exitDx=0;exitDy=0;fontSize=14;" parent="1" source="0jnCKDfPPuCcQXMNyFVX-46" target="0jnCKDfPPuCcQXMNyFVX-49" edge="1">
          <mxGeometry relative="1" as="geometry" />
        </mxCell>
        <mxCell id="0jnCKDfPPuCcQXMNyFVX-54" style="rounded=0;orthogonalLoop=1;jettySize=auto;html=1;entryX=0;entryY=0.5;entryDx=0;entryDy=0;endArrow=none;endFill=0;exitX=1;exitY=0.5;exitDx=0;exitDy=0;fontSize=14;" parent="1" source="0jnCKDfPPuCcQXMNyFVX-46" target="0jnCKDfPPuCcQXMNyFVX-50" edge="1">
          <mxGeometry relative="1" as="geometry" />
        </mxCell>
        <mxCell id="0jnCKDfPPuCcQXMNyFVX-55" style="rounded=0;orthogonalLoop=1;jettySize=auto;html=1;entryX=0;entryY=0.5;entryDx=0;entryDy=0;endArrow=none;endFill=0;exitX=1;exitY=0.5;exitDx=0;exitDy=0;fontSize=14;" parent="1" source="0jnCKDfPPuCcQXMNyFVX-46" target="0jnCKDfPPuCcQXMNyFVX-51" edge="1">
          <mxGeometry relative="1" as="geometry">
            <mxPoint x="230" y="795" as="sourcePoint" />
          </mxGeometry>
        </mxCell>
        <mxCell id="0jnCKDfPPuCcQXMNyFVX-60" style="edgeStyle=orthogonalEdgeStyle;rounded=0;orthogonalLoop=1;jettySize=auto;html=1;entryX=0.5;entryY=0;entryDx=0;entryDy=0;endArrow=none;endFill=0;shape=link;fontSize=14;" parent="1" source="0jnCKDfPPuCcQXMNyFVX-46" target="0jnCKDfPPuCcQXMNyFVX-59" edge="1">
          <mxGeometry relative="1" as="geometry" />
        </mxCell>
        <mxCell id="0jnCKDfPPuCcQXMNyFVX-46" value="Seat" style="whiteSpace=wrap;html=1;rounded=0;fontSize=14;" parent="1" vertex="1">
          <mxGeometry x="110" y="765" width="120" height="60" as="geometry" />
        </mxCell>
        <mxCell id="0jnCKDfPPuCcQXMNyFVX-48" value="&lt;u style=&quot;font-size: 14px;&quot;&gt;SeatID&lt;/u&gt;" style="ellipse;whiteSpace=wrap;html=1;rounded=0;fontSize=14;" parent="1" vertex="1">
          <mxGeometry x="280" y="710" width="110" height="40" as="geometry" />
        </mxCell>
        <mxCell id="0jnCKDfPPuCcQXMNyFVX-49" value="SeatNumber" style="ellipse;whiteSpace=wrap;html=1;rounded=0;fontSize=14;" parent="1" vertex="1">
          <mxGeometry x="280" y="760" width="110" height="40" as="geometry" />
        </mxCell>
        <mxCell id="0jnCKDfPPuCcQXMNyFVX-50" value="SeatStatus" style="ellipse;whiteSpace=wrap;html=1;rounded=0;fontSize=14;" parent="1" vertex="1">
          <mxGeometry x="280" y="810" width="110" height="40" as="geometry" />
        </mxCell>
        <mxCell id="0jnCKDfPPuCcQXMNyFVX-51" value="SeatInfo" style="ellipse;whiteSpace=wrap;html=1;rounded=0;fontSize=14;" parent="1" vertex="1">
          <mxGeometry x="280" y="856" width="110" height="40" as="geometry" />
        </mxCell>
        <mxCell id="0jnCKDfPPuCcQXMNyFVX-64" value="" style="edgeStyle=orthogonalEdgeStyle;rounded=0;orthogonalLoop=1;jettySize=auto;html=1;shape=link;fontSize=14;" parent="1" source="0jnCKDfPPuCcQXMNyFVX-59" target="0jnCKDfPPuCcQXMNyFVX-63" edge="1">
          <mxGeometry relative="1" as="geometry" />
        </mxCell>
        <mxCell id="0jnCKDfPPuCcQXMNyFVX-59" value="Located at" style="rhombus;whiteSpace=wrap;html=1;rounded=0;fontSize=14;" parent="1" vertex="1">
          <mxGeometry x="100" y="880" width="140" height="60" as="geometry" />
        </mxCell>
        <mxCell id="0jnCKDfPPuCcQXMNyFVX-61" value="M" style="text;html=1;strokeColor=none;fillColor=none;align=center;verticalAlign=middle;whiteSpace=wrap;rounded=0;fontSize=14;" parent="1" vertex="1">
          <mxGeometry x="180" y="725" width="30" height="30" as="geometry" />
        </mxCell>
        <mxCell id="0jnCKDfPPuCcQXMNyFVX-62" value="M" style="text;html=1;strokeColor=none;fillColor=none;align=center;verticalAlign=middle;whiteSpace=wrap;rounded=0;fontSize=14;" parent="1" vertex="1">
          <mxGeometry x="180" y="845" width="30" height="30" as="geometry" />
        </mxCell>
        <mxCell id="0jnCKDfPPuCcQXMNyFVX-63" value="Area" style="whiteSpace=wrap;html=1;rounded=0;fontSize=14;" parent="1" vertex="1">
          <mxGeometry x="110" y="1010" width="120" height="60" as="geometry" />
        </mxCell>
        <mxCell id="0jnCKDfPPuCcQXMNyFVX-68" style="rounded=0;orthogonalLoop=1;jettySize=auto;html=1;entryX=0;entryY=0.5;entryDx=0;entryDy=0;endArrow=none;endFill=0;exitX=1;exitY=0.5;exitDx=0;exitDy=0;fontSize=14;" parent="1" source="0jnCKDfPPuCcQXMNyFVX-65" target="0jnCKDfPPuCcQXMNyFVX-63" edge="1">
          <mxGeometry relative="1" as="geometry" />
        </mxCell>
        <mxCell id="0jnCKDfPPuCcQXMNyFVX-65" value="&lt;u style=&quot;font-size: 14px;&quot;&gt;AreaID&lt;/u&gt;" style="ellipse;whiteSpace=wrap;html=1;rounded=0;fontSize=14;" parent="1" vertex="1">
          <mxGeometry x="-40" y="1000" width="110" height="40" as="geometry" />
        </mxCell>
        <mxCell id="0jnCKDfPPuCcQXMNyFVX-69" style="rounded=0;orthogonalLoop=1;jettySize=auto;html=1;endArrow=none;endFill=0;exitX=1;exitY=0.5;exitDx=0;exitDy=0;fontSize=14;" parent="1" source="0jnCKDfPPuCcQXMNyFVX-66" edge="1">
          <mxGeometry relative="1" as="geometry">
            <mxPoint x="110" y="1040" as="targetPoint" />
          </mxGeometry>
        </mxCell>
        <mxCell id="0jnCKDfPPuCcQXMNyFVX-66" value="AreaName" style="ellipse;whiteSpace=wrap;html=1;rounded=0;fontSize=14;" parent="1" vertex="1">
          <mxGeometry x="-40" y="1050" width="110" height="40" as="geometry" />
        </mxCell>
        <mxCell id="0jnCKDfPPuCcQXMNyFVX-70" value="1" style="text;html=1;strokeColor=none;fillColor=none;align=center;verticalAlign=middle;whiteSpace=wrap;rounded=0;fontSize=14;" parent="1" vertex="1">
          <mxGeometry x="180" y="929" width="30" height="30" as="geometry" />
        </mxCell>
        <mxCell id="znWmD3map7zhyLhBwitS-8" value="" style="edgeStyle=orthogonalEdgeStyle;rounded=0;orthogonalLoop=1;jettySize=auto;html=1;endArrow=none;endFill=0;shape=link;exitX=0.5;exitY=1;exitDx=0;exitDy=0;" parent="1" source="znWmD3map7zhyLhBwitS-1" target="znWmD3map7zhyLhBwitS-7" edge="1">
          <mxGeometry relative="1" as="geometry" />
        </mxCell>
        <mxCell id="znWmD3map7zhyLhBwitS-1" value="Apply for" style="rhombus;whiteSpace=wrap;html=1;rounded=0;fontSize=14;" parent="1" vertex="1">
          <mxGeometry x="98.75" y="365" width="142.5" height="60" as="geometry" />
        </mxCell>
        <mxCell id="znWmD3map7zhyLhBwitS-4" value="" style="rounded=0;orthogonalLoop=1;jettySize=auto;html=1;endArrow=none;endFill=0;entryX=0;entryY=0.5;entryDx=0;entryDy=0;exitX=0.5;exitY=1;exitDx=0;exitDy=0;" parent="1" source="znWmD3map7zhyLhBwitS-2" target="znWmD3map7zhyLhBwitS-3" edge="1">
          <mxGeometry relative="1" as="geometry" />
        </mxCell>
        <mxCell id="x8Iow881cjHOnN5J1-t7-8" value="" style="rounded=0;orthogonalLoop=1;jettySize=auto;html=1;endArrow=none;endFill=0;shape=link;entryX=0.039;entryY=0.51;entryDx=0;entryDy=0;entryPerimeter=0;" parent="1" source="znWmD3map7zhyLhBwitS-2" target="x8Iow881cjHOnN5J1-t7-7" edge="1">
          <mxGeometry relative="1" as="geometry" />
        </mxCell>
        <mxCell id="znWmD3map7zhyLhBwitS-2" value="Manager" style="whiteSpace=wrap;html=1;rounded=0;fontSize=14;" parent="1" vertex="1">
          <mxGeometry x="-264" y="297" width="120" height="50" as="geometry" />
        </mxCell>
        <mxCell id="znWmD3map7zhyLhBwitS-10" style="rounded=0;orthogonalLoop=1;jettySize=auto;html=1;entryX=0;entryY=0.5;entryDx=0;entryDy=0;endArrow=none;endFill=0;shape=link;exitX=0.962;exitY=0.505;exitDx=0;exitDy=0;exitPerimeter=0;" parent="1" source="znWmD3map7zhyLhBwitS-3" target="znWmD3map7zhyLhBwitS-7" edge="1">
          <mxGeometry relative="1" as="geometry" />
        </mxCell>
        <mxCell id="znWmD3map7zhyLhBwitS-3" value="Approve" style="rhombus;whiteSpace=wrap;html=1;fontSize=14;rounded=0;" parent="1" vertex="1">
          <mxGeometry x="-120" y="420" width="120" height="57" as="geometry" />
        </mxCell>
        <mxCell id="znWmD3map7zhyLhBwitS-17" style="edgeStyle=orthogonalEdgeStyle;rounded=0;orthogonalLoop=1;jettySize=auto;html=1;endArrow=none;endFill=0;" parent="1" source="znWmD3map7zhyLhBwitS-7" target="0jnCKDfPPuCcQXMNyFVX-27" edge="1">
          <mxGeometry relative="1" as="geometry" />
        </mxCell>
        <mxCell id="znWmD3map7zhyLhBwitS-7" value="Request" style="whiteSpace=wrap;html=1;fontSize=14;rounded=0;" parent="1" vertex="1">
          <mxGeometry x="110" y="508.5" width="120" height="60" as="geometry" />
        </mxCell>
        <mxCell id="znWmD3map7zhyLhBwitS-15" style="rounded=0;orthogonalLoop=1;jettySize=auto;html=1;entryX=1;entryY=0.5;entryDx=0;entryDy=0;endArrow=none;endFill=0;exitX=0;exitY=0.5;exitDx=0;exitDy=0;" parent="1" source="znWmD3map7zhyLhBwitS-11" target="znWmD3map7zhyLhBwitS-7" edge="1">
          <mxGeometry relative="1" as="geometry" />
        </mxCell>
        <mxCell id="znWmD3map7zhyLhBwitS-11" value="&lt;u style=&quot;font-size: 14px;&quot;&gt;RequestID&lt;/u&gt;" style="ellipse;whiteSpace=wrap;html=1;rounded=0;fontSize=14;" parent="1" vertex="1">
          <mxGeometry x="280" y="445.5" width="110" height="40" as="geometry" />
        </mxCell>
        <mxCell id="znWmD3map7zhyLhBwitS-14" style="rounded=0;orthogonalLoop=1;jettySize=auto;html=1;endArrow=none;endFill=0;exitX=0;exitY=0.5;exitDx=0;exitDy=0;" parent="1" source="znWmD3map7zhyLhBwitS-12" edge="1">
          <mxGeometry relative="1" as="geometry">
            <mxPoint x="230" y="539" as="targetPoint" />
          </mxGeometry>
        </mxCell>
        <mxCell id="znWmD3map7zhyLhBwitS-12" value="RequestStatus" style="ellipse;whiteSpace=wrap;html=1;rounded=0;fontSize=14;" parent="1" vertex="1">
          <mxGeometry x="280" y="495.5" width="110" height="40" as="geometry" />
        </mxCell>
        <mxCell id="znWmD3map7zhyLhBwitS-16" style="rounded=0;orthogonalLoop=1;jettySize=auto;html=1;entryX=1;entryY=0.5;entryDx=0;entryDy=0;endArrow=none;endFill=0;exitX=0;exitY=0.5;exitDx=0;exitDy=0;" parent="1" source="znWmD3map7zhyLhBwitS-13" target="znWmD3map7zhyLhBwitS-7" edge="1">
          <mxGeometry relative="1" as="geometry" />
        </mxCell>
        <mxCell id="znWmD3map7zhyLhBwitS-13" value="RequestDate" style="ellipse;whiteSpace=wrap;html=1;rounded=0;fontSize=14;" parent="1" vertex="1">
          <mxGeometry x="280" y="545.5" width="110" height="40" as="geometry" />
        </mxCell>
        <mxCell id="qm03SWZNLX3FFc-geUG5-5" style="rounded=0;orthogonalLoop=1;jettySize=auto;html=1;entryX=0;entryY=0.5;entryDx=0;entryDy=0;endArrow=none;endFill=0;exitX=1;exitY=0.5;exitDx=0;exitDy=0;" parent="1" source="qm03SWZNLX3FFc-geUG5-1" target="znWmD3map7zhyLhBwitS-2" edge="1">
          <mxGeometry relative="1" as="geometry" />
        </mxCell>
        <mxCell id="qm03SWZNLX3FFc-geUG5-1" value="&lt;u style=&quot;font-size: 14px;&quot;&gt;ManagerID&lt;/u&gt;" style="ellipse;whiteSpace=wrap;html=1;rounded=0;fontSize=14;" parent="1" vertex="1">
          <mxGeometry x="-440" y="220" width="110" height="40" as="geometry" />
        </mxCell>
        <mxCell id="qm03SWZNLX3FFc-geUG5-6" style="rounded=0;orthogonalLoop=1;jettySize=auto;html=1;entryX=0;entryY=0.5;entryDx=0;entryDy=0;endArrow=none;endFill=0;exitX=1;exitY=0.5;exitDx=0;exitDy=0;" parent="1" source="qm03SWZNLX3FFc-geUG5-2" target="znWmD3map7zhyLhBwitS-2" edge="1">
          <mxGeometry relative="1" as="geometry" />
        </mxCell>
        <mxCell id="qm03SWZNLX3FFc-geUG5-2" value="FirstName" style="ellipse;whiteSpace=wrap;html=1;rounded=0;fontSize=14;" parent="1" vertex="1">
          <mxGeometry x="-440" y="270" width="110" height="40" as="geometry" />
        </mxCell>
        <mxCell id="qm03SWZNLX3FFc-geUG5-7" style="rounded=0;orthogonalLoop=1;jettySize=auto;html=1;entryX=0;entryY=0.5;entryDx=0;entryDy=0;endArrow=none;endFill=0;exitX=1;exitY=0.5;exitDx=0;exitDy=0;" parent="1" source="qm03SWZNLX3FFc-geUG5-3" target="znWmD3map7zhyLhBwitS-2" edge="1">
          <mxGeometry relative="1" as="geometry">
            <mxPoint x="-307" y="330.5" as="sourcePoint" />
          </mxGeometry>
        </mxCell>
        <mxCell id="qm03SWZNLX3FFc-geUG5-3" value="LastName" style="ellipse;whiteSpace=wrap;html=1;rounded=0;fontSize=14;" parent="1" vertex="1">
          <mxGeometry x="-440" y="320" width="110" height="40" as="geometry" />
        </mxCell>
        <mxCell id="qm03SWZNLX3FFc-geUG5-8" style="rounded=0;orthogonalLoop=1;jettySize=auto;html=1;entryX=0;entryY=0.5;entryDx=0;entryDy=0;endArrow=none;endFill=0;exitX=1;exitY=0.5;exitDx=0;exitDy=0;" parent="1" source="qm03SWZNLX3FFc-geUG5-4" target="znWmD3map7zhyLhBwitS-2" edge="1">
          <mxGeometry relative="1" as="geometry" />
        </mxCell>
        <mxCell id="qm03SWZNLX3FFc-geUG5-4" value="Email" style="ellipse;whiteSpace=wrap;html=1;rounded=0;fontSize=14;" parent="1" vertex="1">
          <mxGeometry x="-440" y="372.5" width="110" height="40" as="geometry" />
        </mxCell>
        <mxCell id="qm03SWZNLX3FFc-geUG5-9" value="M" style="text;html=1;strokeColor=none;fillColor=none;align=center;verticalAlign=middle;whiteSpace=wrap;rounded=0;fontSize=14;" parent="1" vertex="1">
          <mxGeometry x="180" y="465" width="30" height="30" as="geometry" />
        </mxCell>
        <mxCell id="qm03SWZNLX3FFc-geUG5-10" value="M" style="text;html=1;strokeColor=none;fillColor=none;align=center;verticalAlign=middle;whiteSpace=wrap;rounded=0;fontSize=14;" parent="1" vertex="1">
          <mxGeometry x="30" y="450" width="30" height="30" as="geometry" />
        </mxCell>
        <mxCell id="x8Iow881cjHOnN5J1-t7-9" style="rounded=0;orthogonalLoop=1;jettySize=auto;html=1;entryX=0;entryY=0.5;entryDx=0;entryDy=0;endArrow=none;endFill=0;shape=link;exitX=0.969;exitY=0.495;exitDx=0;exitDy=0;exitPerimeter=0;" parent="1" source="x8Iow881cjHOnN5J1-t7-7" target="0jnCKDfPPuCcQXMNyFVX-1" edge="1">
          <mxGeometry relative="1" as="geometry">
            <mxPoint x="50" y="322" as="sourcePoint" />
          </mxGeometry>
        </mxCell>
        <mxCell id="x8Iow881cjHOnN5J1-t7-7" value="Managed by" style="rhombus;whiteSpace=wrap;html=1;fontSize=14;rounded=0;" parent="1" vertex="1">
          <mxGeometry x="-100" y="190" width="130" height="65" as="geometry" />
        </mxCell>
        <mxCell id="x8Iow881cjHOnN5J1-t7-11" value="1" style="text;html=1;strokeColor=none;fillColor=none;align=center;verticalAlign=middle;whiteSpace=wrap;rounded=0;fontSize=14;" parent="1" vertex="1">
          <mxGeometry x="-160" y="230" width="30" height="30" as="geometry" />
        </mxCell>
        <mxCell id="x8Iow881cjHOnN5J1-t7-12" value="1" style="text;html=1;strokeColor=none;fillColor=none;align=center;verticalAlign=middle;whiteSpace=wrap;rounded=0;fontSize=14;" parent="1" vertex="1">
          <mxGeometry x="54" y="122.5" width="30" height="30" as="geometry" />
        </mxCell>
        <mxCell id="x8Iow881cjHOnN5J1-t7-13" value="1" style="text;html=1;strokeColor=none;fillColor=none;align=center;verticalAlign=middle;whiteSpace=wrap;rounded=0;fontSize=14;" parent="1" vertex="1">
          <mxGeometry x="-160" y="372.5" width="30" height="30" as="geometry" />
        </mxCell>
        <mxCell id="x8Iow881cjHOnN5J1-t7-14" value="1" style="text;html=1;strokeColor=none;fillColor=none;align=center;verticalAlign=middle;whiteSpace=wrap;rounded=0;fontSize=14;" parent="1" vertex="1">
          <mxGeometry x="-1430" y="350" width="30" height="30" as="geometry" />
        </mxCell>
        <mxCell id="SV7SgHQh2uX9AODtfDUU-5" style="rounded=0;orthogonalLoop=1;jettySize=auto;html=1;entryX=1;entryY=0.5;entryDx=0;entryDy=0;endArrow=none;endFill=0;exitX=0;exitY=0.5;exitDx=0;exitDy=0;" parent="1" source="SV7SgHQh2uX9AODtfDUU-4" target="znWmD3map7zhyLhBwitS-7" edge="1">
          <mxGeometry relative="1" as="geometry" />
        </mxCell>
        <mxCell id="SV7SgHQh2uX9AODtfDUU-4" value="RequestType" style="ellipse;whiteSpace=wrap;html=1;rounded=0;fontSize=14;" parent="1" vertex="1">
          <mxGeometry x="280" y="591.5" width="110" height="40" as="geometry" />
        </mxCell>
        <mxCell id="SV7SgHQh2uX9AODtfDUU-8" style="rounded=0;orthogonalLoop=1;jettySize=auto;html=1;entryX=1;entryY=0.5;entryDx=0;entryDy=0;endArrow=none;endFill=0;exitX=0;exitY=0.5;exitDx=0;exitDy=0;" parent="1" source="SV7SgHQh2uX9AODtfDUU-6" target="znWmD3map7zhyLhBwitS-7" edge="1">
          <mxGeometry relative="1" as="geometry" />
        </mxCell>
        <mxCell id="SV7SgHQh2uX9AODtfDUU-6" value="isNotified" style="ellipse;whiteSpace=wrap;html=1;rounded=0;fontSize=14;" parent="1" vertex="1">
          <mxGeometry x="280" y="640" width="110" height="40" as="geometry" />
        </mxCell>
        <mxCell id="SV7SgHQh2uX9AODtfDUU-7" value="1" style="text;html=1;strokeColor=none;fillColor=none;align=center;verticalAlign=middle;whiteSpace=wrap;rounded=0;fontSize=14;" parent="1" vertex="1">
          <mxGeometry x="170" y="591.5" width="30" height="30" as="geometry" />
        </mxCell>
        <mxCell id="RbO1kLJSpm7-IBDXhGbu-13" style="rounded=0;orthogonalLoop=1;jettySize=auto;html=1;entryX=0;entryY=0.5;entryDx=0;entryDy=0;endArrow=none;endFill=0;exitX=1;exitY=0.5;exitDx=0;exitDy=0;" parent="1" source="RbO1kLJSpm7-IBDXhGbu-10" target="0jnCKDfPPuCcQXMNyFVX-46" edge="1">
          <mxGeometry relative="1" as="geometry" />
        </mxCell>
        <mxCell id="RbO1kLJSpm7-IBDXhGbu-10" value="StartDate" style="ellipse;whiteSpace=wrap;html=1;rounded=0;fontSize=14;" parent="1" vertex="1">
          <mxGeometry x="-50" y="720" width="110" height="40" as="geometry" />
        </mxCell>
        <mxCell id="RbO1kLJSpm7-IBDXhGbu-14" style="rounded=0;orthogonalLoop=1;jettySize=auto;html=1;entryX=0;entryY=0.5;entryDx=0;entryDy=0;endArrow=none;endFill=0;" parent="1" source="RbO1kLJSpm7-IBDXhGbu-11" target="0jnCKDfPPuCcQXMNyFVX-46" edge="1">
          <mxGeometry relative="1" as="geometry" />
        </mxCell>
        <mxCell id="RbO1kLJSpm7-IBDXhGbu-11" value="EndDate" style="ellipse;whiteSpace=wrap;html=1;rounded=0;fontSize=14;" parent="1" vertex="1">
          <mxGeometry x="-50" y="772" width="110" height="40" as="geometry" />
        </mxCell>
        <mxCell id="RbO1kLJSpm7-IBDXhGbu-15" style="rounded=0;orthogonalLoop=1;jettySize=auto;html=1;entryX=0;entryY=0.5;entryDx=0;entryDy=0;endArrow=none;endFill=0;exitX=1;exitY=0.5;exitDx=0;exitDy=0;" parent="1" source="RbO1kLJSpm7-IBDXhGbu-12" target="0jnCKDfPPuCcQXMNyFVX-46" edge="1">
          <mxGeometry relative="1" as="geometry" />
        </mxCell>
        <mxCell id="RbO1kLJSpm7-IBDXhGbu-12" value="SeatType" style="ellipse;whiteSpace=wrap;html=1;rounded=0;fontSize=14;" parent="1" vertex="1">
          <mxGeometry x="-50" y="825" width="110" height="40" as="geometry" />
        </mxCell>
        <mxCell id="RbO1kLJSpm7-IBDXhGbu-16" value="SeatType (int)" style="swimlane;fontStyle=0;childLayout=stackLayout;horizontal=1;startSize=30;horizontalStack=0;resizeParent=1;resizeParentMax=0;resizeLast=0;collapsible=1;marginBottom=0;whiteSpace=wrap;html=1;fontSize=14;" parent="1" vertex="1">
          <mxGeometry x="-340" y="705" width="240" height="90" as="geometry">
            <mxRectangle x="430" y="734" width="140" height="30" as="alternateBounds" />
          </mxGeometry>
        </mxCell>
        <mxCell id="RbO1kLJSpm7-IBDXhGbu-17" value="0 : Permanent" style="text;strokeColor=none;fillColor=none;align=left;verticalAlign=middle;spacingLeft=4;spacingRight=4;overflow=hidden;points=[[0,0.5],[1,0.5]];portConstraint=eastwest;rotatable=0;whiteSpace=wrap;html=1;fontSize=14;" parent="RbO1kLJSpm7-IBDXhGbu-16" vertex="1">
          <mxGeometry y="30" width="240" height="30" as="geometry" />
        </mxCell>
        <mxCell id="RbO1kLJSpm7-IBDXhGbu-18" value="1 : Temporal" style="text;strokeColor=none;fillColor=none;align=left;verticalAlign=middle;spacingLeft=4;spacingRight=4;overflow=hidden;points=[[0,0.5],[1,0.5]];portConstraint=eastwest;rotatable=0;whiteSpace=wrap;html=1;fontSize=14;" parent="RbO1kLJSpm7-IBDXhGbu-16" vertex="1">
          <mxGeometry y="60" width="240" height="30" as="geometry" />
        </mxCell>
        <mxCell id="RbO1kLJSpm7-IBDXhGbu-22" value="RequestType (int)" style="swimlane;fontStyle=0;childLayout=stackLayout;horizontal=1;startSize=30;horizontalStack=0;resizeParent=1;resizeParentMax=0;resizeLast=0;collapsible=1;marginBottom=0;whiteSpace=wrap;html=1;fontSize=14;" parent="1" vertex="1">
          <mxGeometry x="430" y="534" width="230" height="150" as="geometry" />
        </mxCell>
        <mxCell id="RbO1kLJSpm7-IBDXhGbu-23" value="0 : Single" style="text;strokeColor=none;fillColor=none;align=left;verticalAlign=middle;spacingLeft=4;spacingRight=4;overflow=hidden;points=[[0,0.5],[1,0.5]];portConstraint=eastwest;rotatable=0;whiteSpace=wrap;html=1;fontSize=14;" parent="RbO1kLJSpm7-IBDXhGbu-22" vertex="1">
          <mxGeometry y="30" width="230" height="30" as="geometry" />
        </mxCell>
        <mxCell id="RbO1kLJSpm7-IBDXhGbu-24" value="1 : Multiple" style="text;strokeColor=none;fillColor=none;align=left;verticalAlign=middle;spacingLeft=4;spacingRight=4;overflow=hidden;points=[[0,0.5],[1,0.5]];portConstraint=eastwest;rotatable=0;whiteSpace=wrap;html=1;fontSize=14;" parent="RbO1kLJSpm7-IBDXhGbu-22" vertex="1">
          <mxGeometry y="60" width="230" height="30" as="geometry" />
        </mxCell>
        <mxCell id="RbO1kLJSpm7-IBDXhGbu-25" value="2 : Update" style="text;strokeColor=none;fillColor=none;align=left;verticalAlign=middle;spacingLeft=4;spacingRight=4;overflow=hidden;points=[[0,0.5],[1,0.5]];portConstraint=eastwest;rotatable=0;whiteSpace=wrap;html=1;fontSize=14;" parent="RbO1kLJSpm7-IBDXhGbu-22" vertex="1">
          <mxGeometry y="90" width="230" height="30" as="geometry" />
        </mxCell>
        <mxCell id="RbO1kLJSpm7-IBDXhGbu-27" value="3 : Admin" style="text;strokeColor=none;fillColor=none;align=left;verticalAlign=middle;spacingLeft=4;spacingRight=4;overflow=hidden;points=[[0,0.5],[1,0.5]];portConstraint=eastwest;rotatable=0;whiteSpace=wrap;html=1;fontSize=14;" parent="RbO1kLJSpm7-IBDXhGbu-22" vertex="1">
          <mxGeometry y="120" width="230" height="30" as="geometry" />
        </mxCell>
        <mxCell id="RbO1kLJSpm7-IBDXhGbu-31" value="isNewUser" style="ellipse;whiteSpace=wrap;html=1;rounded=0;fontSize=14;" parent="1" vertex="1">
          <mxGeometry x="281.25" y="360" width="110" height="40" as="geometry" />
        </mxCell>
      </root>
    </mxGraphModel>
  </diagram>
</mxfile>
